<mxfile host="Electron" agent="Mozilla/5.0 (Windows NT 10.0; Win64; x64) AppleWebKit/537.36 (KHTML, like Gecko) draw.io/27.0.5 Chrome/134.0.6998.205 Electron/35.3.0 Safari/537.36" version="27.0.5">
  <diagram name="第 1 页" id="yPVeDalwZRH3Ttw6xuL-">
    <mxGraphModel dx="1042" dy="626" grid="1" gridSize="10" guides="1" tooltips="1" connect="1" arrows="1" fold="1" page="1" pageScale="1" pageWidth="827" pageHeight="1169" math="0" shadow="1">
      <root>
        <mxCell id="0" />
        <mxCell id="1" parent="0" />
        <mxCell id="hCGsh3y34SQMAFstXHBm-17" value="" style="strokeWidth=2;html=1;shape=mxgraph.flowchart.annotation_2;align=left;labelPosition=right;pointerEvents=1;rotation=-180;fillColor=#1ba1e2;fontColor=#ffffff;strokeColor=#006EAF;" parent="1" vertex="1">
          <mxGeometry x="274" y="170" width="60" height="310" as="geometry" />
        </mxCell>
        <mxCell id="hCGsh3y34SQMAFstXHBm-18" value="" style="strokeWidth=2;html=1;shape=mxgraph.flowchart.annotation_2;align=left;labelPosition=right;pointerEvents=1;rotation=-180;fillColor=#1ba1e2;fontColor=#ffffff;strokeColor=#006EAF;" parent="1" vertex="1">
          <mxGeometry x="554" y="170" width="60" height="150" as="geometry" />
        </mxCell>
        <mxCell id="hCGsh3y34SQMAFstXHBm-19" value="" style="strokeWidth=2;html=1;shape=mxgraph.flowchart.annotation_2;align=left;labelPosition=right;pointerEvents=1;rotation=-180;" parent="1" vertex="1">
          <mxGeometry x="554" y="330" width="60" height="150" as="geometry" />
        </mxCell>
        <mxCell id="hCGsh3y34SQMAFstXHBm-20" value="&lt;font style=&quot;font-size: 16px;&quot;&gt;全&lt;/font&gt;&lt;div&gt;&lt;font style=&quot;font-size: 16px;&quot;&gt;相&lt;/font&gt;&lt;/div&gt;&lt;div&gt;&lt;font style=&quot;font-size: 16px;&quot;&gt;联&lt;/font&gt;&lt;div&gt;&lt;font style=&quot;font-size: 16px;&quot;&gt;查&lt;/font&gt;&lt;/div&gt;&lt;div&gt;&lt;font style=&quot;font-size: 16px;&quot;&gt;找&lt;/font&gt;&lt;/div&gt;&lt;div&gt;&lt;font style=&quot;font-size: 16px;&quot;&gt;范&lt;/font&gt;&lt;/div&gt;&lt;div&gt;&lt;font style=&quot;font-size: 16px;&quot;&gt;围&lt;/font&gt;&lt;/div&gt;&lt;/div&gt;" style="text;html=1;align=center;verticalAlign=middle;resizable=0;points=[];autosize=1;strokeColor=none;fillColor=none;" parent="1" vertex="1">
          <mxGeometry x="324" y="250" width="40" height="150" as="geometry" />
        </mxCell>
        <mxCell id="hCGsh3y34SQMAFstXHBm-21" value="&lt;span style=&quot;background-color: transparent; color: light-dark(rgb(0, 0, 0), rgb(255, 255, 255)); font-size: 16px;&quot;&gt;组&lt;/span&gt;&lt;div&gt;&lt;span style=&quot;background-color: transparent; color: light-dark(rgb(0, 0, 0), rgb(255, 255, 255)); font-size: 16px;&quot;&gt;相&lt;/span&gt;&lt;/div&gt;&lt;div&gt;&lt;span style=&quot;background-color: transparent; color: light-dark(rgb(0, 0, 0), rgb(255, 255, 255)); font-size: 16px;&quot;&gt;联&lt;/span&gt;&lt;/div&gt;&lt;div&gt;&lt;span style=&quot;background-color: transparent; color: light-dark(rgb(0, 0, 0), rgb(255, 255, 255)); font-size: 16px;&quot;&gt;查&lt;/span&gt;&lt;div&gt;&lt;div&gt;&lt;font style=&quot;font-size: 16px;&quot;&gt;找&lt;/font&gt;&lt;/div&gt;&lt;div&gt;&lt;font style=&quot;font-size: 16px;&quot;&gt;范&lt;/font&gt;&lt;/div&gt;&lt;div&gt;&lt;font style=&quot;font-size: 16px;&quot;&gt;围&lt;/font&gt;&lt;/div&gt;&lt;/div&gt;&lt;/div&gt;" style="text;html=1;align=center;verticalAlign=middle;resizable=0;points=[];autosize=1;strokeColor=none;fillColor=none;" parent="1" vertex="1">
          <mxGeometry x="684" y="250" width="40" height="150" as="geometry" />
        </mxCell>
        <mxCell id="hCGsh3y34SQMAFstXHBm-23" value="" style="group" parent="1" vertex="1" connectable="0">
          <mxGeometry x="104" y="170" width="160" height="310" as="geometry" />
        </mxCell>
        <mxCell id="hCGsh3y34SQMAFstXHBm-1" value="" style="rounded=0;whiteSpace=wrap;html=1;fillColor=#d5e8d4;strokeColor=#82b366;" parent="hCGsh3y34SQMAFstXHBm-23" vertex="1">
          <mxGeometry width="160" height="30" as="geometry" />
        </mxCell>
        <mxCell id="hCGsh3y34SQMAFstXHBm-2" value="" style="rounded=0;whiteSpace=wrap;html=1;fillColor=#d5e8d4;strokeColor=#82b366;" parent="hCGsh3y34SQMAFstXHBm-23" vertex="1">
          <mxGeometry y="40" width="160" height="30" as="geometry" />
        </mxCell>
        <mxCell id="hCGsh3y34SQMAFstXHBm-3" value="" style="rounded=0;whiteSpace=wrap;html=1;fillColor=#d5e8d4;strokeColor=#82b366;" parent="hCGsh3y34SQMAFstXHBm-23" vertex="1">
          <mxGeometry y="80" width="160" height="30" as="geometry" />
        </mxCell>
        <mxCell id="hCGsh3y34SQMAFstXHBm-4" value="" style="rounded=0;whiteSpace=wrap;html=1;fillColor=#d5e8d4;strokeColor=#82b366;" parent="hCGsh3y34SQMAFstXHBm-23" vertex="1">
          <mxGeometry y="120" width="160" height="30" as="geometry" />
        </mxCell>
        <mxCell id="hCGsh3y34SQMAFstXHBm-5" value="" style="rounded=0;whiteSpace=wrap;html=1;fillColor=#d5e8d4;strokeColor=#82b366;" parent="hCGsh3y34SQMAFstXHBm-23" vertex="1">
          <mxGeometry y="160" width="160" height="30" as="geometry" />
        </mxCell>
        <mxCell id="hCGsh3y34SQMAFstXHBm-6" value="" style="rounded=0;whiteSpace=wrap;html=1;fillColor=#d5e8d4;strokeColor=#82b366;" parent="hCGsh3y34SQMAFstXHBm-23" vertex="1">
          <mxGeometry y="200" width="160" height="30" as="geometry" />
        </mxCell>
        <mxCell id="hCGsh3y34SQMAFstXHBm-7" value="" style="rounded=0;whiteSpace=wrap;html=1;fillColor=#d5e8d4;strokeColor=#82b366;" parent="hCGsh3y34SQMAFstXHBm-23" vertex="1">
          <mxGeometry y="240" width="160" height="30" as="geometry" />
        </mxCell>
        <mxCell id="hCGsh3y34SQMAFstXHBm-8" value="" style="rounded=0;whiteSpace=wrap;html=1;fillColor=#d5e8d4;strokeColor=#82b366;" parent="hCGsh3y34SQMAFstXHBm-23" vertex="1">
          <mxGeometry y="280" width="160" height="30" as="geometry" />
        </mxCell>
        <mxCell id="hCGsh3y34SQMAFstXHBm-24" value="" style="group" parent="1" vertex="1" connectable="0">
          <mxGeometry x="384" y="170" width="160" height="150" as="geometry" />
        </mxCell>
        <mxCell id="hCGsh3y34SQMAFstXHBm-9" value="" style="rounded=0;whiteSpace=wrap;html=1;fillColor=#60a917;fontColor=#ffffff;strokeColor=#2D7600;" parent="hCGsh3y34SQMAFstXHBm-24" vertex="1">
          <mxGeometry width="160" height="30" as="geometry" />
        </mxCell>
        <mxCell id="hCGsh3y34SQMAFstXHBm-10" value="" style="rounded=0;whiteSpace=wrap;html=1;fillColor=#60a917;fontColor=#ffffff;strokeColor=#2D7600;" parent="hCGsh3y34SQMAFstXHBm-24" vertex="1">
          <mxGeometry y="40" width="160" height="30" as="geometry" />
        </mxCell>
        <mxCell id="hCGsh3y34SQMAFstXHBm-11" value="" style="rounded=0;whiteSpace=wrap;html=1;fillColor=#60a917;fontColor=#ffffff;strokeColor=#2D7600;" parent="hCGsh3y34SQMAFstXHBm-24" vertex="1">
          <mxGeometry y="80" width="160" height="30" as="geometry" />
        </mxCell>
        <mxCell id="hCGsh3y34SQMAFstXHBm-12" value="" style="rounded=0;whiteSpace=wrap;html=1;fillColor=#60a917;fontColor=#ffffff;strokeColor=#2D7600;" parent="hCGsh3y34SQMAFstXHBm-24" vertex="1">
          <mxGeometry y="120" width="160" height="30" as="geometry" />
        </mxCell>
        <mxCell id="hCGsh3y34SQMAFstXHBm-25" value="" style="group" parent="1" vertex="1" connectable="0">
          <mxGeometry x="384" y="330" width="160" height="150" as="geometry" />
        </mxCell>
        <mxCell id="hCGsh3y34SQMAFstXHBm-13" value="" style="rounded=0;whiteSpace=wrap;html=1;" parent="hCGsh3y34SQMAFstXHBm-25" vertex="1">
          <mxGeometry width="160" height="30" as="geometry" />
        </mxCell>
        <mxCell id="hCGsh3y34SQMAFstXHBm-14" value="" style="rounded=0;whiteSpace=wrap;html=1;" parent="hCGsh3y34SQMAFstXHBm-25" vertex="1">
          <mxGeometry y="40" width="160" height="30" as="geometry" />
        </mxCell>
        <mxCell id="hCGsh3y34SQMAFstXHBm-15" value="" style="rounded=0;whiteSpace=wrap;html=1;" parent="hCGsh3y34SQMAFstXHBm-25" vertex="1">
          <mxGeometry y="80" width="160" height="30" as="geometry" />
        </mxCell>
        <mxCell id="hCGsh3y34SQMAFstXHBm-16" value="" style="rounded=0;whiteSpace=wrap;html=1;" parent="hCGsh3y34SQMAFstXHBm-25" vertex="1">
          <mxGeometry y="120" width="160" height="30" as="geometry" />
        </mxCell>
        <mxCell id="1tilv_UZlxp6BUiLYEJV-1" value="" style="strokeWidth=2;html=1;shape=mxgraph.flowchart.annotation_2;align=left;labelPosition=right;pointerEvents=1;rotation=-180;fillColor=#f8cecc;strokeColor=#b85450;" vertex="1" parent="1">
          <mxGeometry x="624" y="250" width="60" height="150" as="geometry" />
        </mxCell>
      </root>
    </mxGraphModel>
  </diagram>
</mxfile>
